# xmcd
#
# Track frame offsets: 
#        150
#        14863
#        43838
#
# Disc length: 1048 seconds
#
# Revision: 1
# Processed by: cddbd v1.5.2PL0 Copyright (c) Steve Scherf et al.
# Submitted via: ExactAudioCopy v0.99pb4
#
DISCID=25041603
DTITLE=Big Room Girl - Raise Your Hands
DYEAR=1999
DGENRE=House
TTITLE0=Raise Your Hands (Rhythm Masters Remix - Edit)
TTITLE1=Raise Your Hands (Fire Island's Saturday Night Mix - Edit)
TTITLE2=Raise Your Hands (Rhythm Masters Remix)
EXTD=YEAR: 1999
EXTT0=
EXTT1=
EXTT2=
PLAYORDER=
